<svg id="SVGRoot" width="512px" height="512px" version="1.1" viewBox="0 0 128 128" xml:space="preserve" xmlns="http://www.w3.org/2000/svg" xmlns:xlink="http://www.w3.org/1999/xlink"><defs><linearGradient id="linearGradient10237" x1="10.018" x2="202.29" y1="137.98" y2="137.98" gradientTransform="matrix(.52025 0 0 .52025 42.361 54.353)" gradientUnits="userSpaceOnUse"><stop stop-color="#1dc7b5" offset="0"/><stop stop-color="#1dc75e" offset="1"/></linearGradient><linearGradient id="linearGradient9232" x1="75.556" x2="201.92" y1="129.66" y2="129.66" gradientTransform="matrix(.52025 0 0 .52025 42.361 54.904)" gradientUnits="userSpaceOnUse" xlink:href="#linearGradient10042"/><linearGradient id="linearGradient10042"><stop offset="0"/><stop stop-color="#00786c" stop-opacity=".024256" offset="1"/></linearGradient><linearGradient id="linearGradient9304" x1="104.12" x2="200.52" y1="173.47" y2="173.47" gradientTransform="matrix(.52025 0 0 .52025 42.343 54.218)" gradientUnits="userSpaceOnUse" xlink:href="#linearGradient10042"/><linearGradient id="linearGradient10097" x1="104.12" x2="200.52" y1="173.47" y2="173.47" gradientTransform="matrix(.26013 .45055 -.45055 .26013 132.33 42.783)" gradientUnits="userSpaceOnUse" xlink:href="#linearGradient10042"/><linearGradient id="linearGradient10151" x1="104.12" x2="200.52" y1="173.47" y2="173.47" gradientTransform="matrix(-.26013 .45055 -.45055 -.26013 187.53 114.52)" gradientUnits="userSpaceOnUse" xlink:href="#linearGradient10042"/><linearGradient id="linearGradient10205" x1="104.12" x2="200.52" y1="173.47" y2="173.47" gradientTransform="matrix(-.52025 0 0 -.52025 152.57 198.17)" gradientUnits="userSpaceOnUse" xlink:href="#linearGradient10042"/><linearGradient id="linearGradient10228" x1="104.12" x2="200.52" y1="173.47" y2="173.47" gradientTransform="matrix(-.26013 -.45055 .45055 -.26013 62.753 210.02)" gradientUnits="userSpaceOnUse" xlink:href="#linearGradient10042"/></defs><circle cx="64.51" cy="62.02" r="87.45" opacity="0" stroke-width=".27971"/><g transform="matrix(1.1025 0 0 1.1005 -44.172 -74.904)"><g><path d="m97.683 68.67-50.111 29.01v57.289l50.111 28.633 49.73-28.633 0.18673-57.289zm3.3885 37.3 15.826 13.562-3.7697 19.778-19.401 7.1582-15.262-13.562 3.3923-19.969z" fill="url(#linearGradient10237)"/><path d="m81.669 113.3c8.6225-30.419 46.593-27.762 65.744-15.259v57.455c-1.7984-47.198-34.12-53.048-46.529-49.166z" fill="url(#linearGradient9232)" opacity=".65932"/><path d="m101 105.99c30.734-7.4208 47.059 26.964 45.567 49.786l-50.056 28.205c40.237-24.737 29.466-55.767 19.993-64.673z" fill="url(#linearGradient9304)" opacity=".65932"/><path d="m116.83 119.47c21.794 22.906 0.17779 54.237-20.333 64.355l-49.454-29.247c41.541 22.478 63.029-2.365 66.005-15.022z" fill="url(#linearGradient10097)" opacity=".65932"/><path d="m113.36 139.43c-8.9406 30.327-46.881 27.272-65.9 14.569l0.60165-57.452c1.304 47.215 33.563 53.402 46.012 49.651z" fill="url(#linearGradient10151)" opacity=".65932"/><path d="m93.908 146.4c-30.734 7.4208-47.059-26.964-45.567-49.786l50.056-28.205c-40.237 24.737-29.466 55.767-19.993 64.673z" fill="url(#linearGradient10205)" opacity=".65932"/><path d="m78.256 133.33c-21.794-22.906-0.1778-54.237 20.333-64.355l49.454 29.247c-41.541-22.478-63.029 2.365-66.005 15.022z" fill="url(#linearGradient10228)" opacity=".65932"/></g><g fill="none"><path d="m81.863 112.9c5.865-24.419 36.656-31.721 65.751-15.205"/><path d="m101.08 105.96c24.08-7.1303 45.799 15.885 46.043 49.34"/><path d="m116.92 119.55c18.215 17.289 9.1429 47.605-19.708 64.545"/><path d="m113.13 139.32c-5.865 24.419-36.656 31.721-65.751 15.205"/><path d="m93.89 146.51c-24.08 7.1302-45.799-15.885-46.043-49.34"/><path d="m78.537 132.97c-18.215-17.289-9.1429-47.605 19.708-64.545"/></g></g></svg>
