<svg width="336" height="48" version="1.1" viewBox="0 0 336 48" xmlns="http://www.w3.org/2000/svg">
 <path d="M180.394 23.377a7.41 7.41 0 0 0 4.266-6.948c0-5.189-3.958-8.532-9.938-8.532H161V40h14.161c6.068 0 10.158-3.43 10.158-9.059a7.71 7.71 0 0 0-4.925-7.564zM164.65 11.24h10.028c3.913 0 6.332 2.111 6.332 5.189s-2.111 5.365-6.025 5.365H164.65zm10.467 25.374H164.65V25.18h10.291c4.4 0 6.685 2.331 6.685 5.717 0 3.342-2.551 5.717-6.509 5.717zm18.032-15.876v-4.485h-3.474V40h3.562V26.983c0-5.233 2.286-7.52 6.244-7.52a5.2 5.2 0 0 1 2.9.748l1.5-3.43a7.754 7.754 0 0 0-3.957-.88 6.576 6.576 0 0 0-6.775 4.837zm23.22-4.968a12.192 12.192 0 0 0-12.312 12.357 12.335 12.335 0 1 0 24.669 0 12.2 12.2 0 0 0-12.357-12.357zm0 21.284a8.606 8.606 0 0 1-8.663-8.927 8.69 8.69 0 1 1 17.371 0 8.642 8.642 0 0 1-8.708 8.927zm41.3-2.112l-7.081-18.689h-3.342l-7.256 18.821-5.98-18.821h-3.782L238.009 40h3.517l7.3-18.821 7.3 18.821h3.255l8.219-23.747h-3.738zm22.649-8.663c-3.694-.747-6.552-1.231-6.552-3.693 0-2.2 1.5-3.782 5.145-3.782a7.664 7.664 0 0 1 6.509 3.166l2.99-2.023a11.481 11.481 0 0 0-9.5-4.221c-5.629-.044-8.839 3.21-8.839 6.9 0 4.749 4.354 5.849 8.444 6.64 3.473.7 6.727 1.231 6.727 3.87 0 2.375-1.934 4.133-5.629 4.133a8.772 8.772 0 0 1-7.651-3.87l-3.122 2.112c2.11 3.034 5.5 4.968 10.685 4.968 6.2.044 9.368-3.649 9.368-7.387-.002-4.877-4.493-6.021-8.578-6.813zM304.24 15.77a12.178 12.178 0 0 0-12.4 12.445c0 6.948 4.925 12.268 12.532 12.268a12.2 12.2 0 0 0 11.038-6.024l-3.078-1.8a8.489 8.489 0 0 1-7.96 4.573c-5.013 0-8.487-3.209-9.015-7.739h20.977v-1.631A11.714 11.714 0 0 0 304.24 15.77zm-8.8 10.553a8.822 8.822 0 0 1 8.8-7.344 8 8 0 0 1 8.4 7.344zM330.893 15.9a6.576 6.576 0 0 0-6.773 4.837v-4.484h-3.475V40h3.563V26.983c0-5.233 2.286-7.52 6.244-7.52a5.2 5.2 0 0 1 2.9.748l1.5-3.43a7.757 7.757 0 0 0-3.959-.881z" fill="#fff"/>
 <path d="m79.518 4.6524v32.799h8.2441v-10.488c0-2.3592 0.27368-4.1716 0.82031-5.4375 0.5754-1.2659 1.6094-1.8984 3.1055-1.8984 1.8988 0 2.8496 1.5975 2.8496 4.791v13.033h8.2852v-15.537c0-2.0715-0.38922-3.74-1.166-5.0059-0.74803-1.2947-1.7536-2.2435-3.0195-2.8477-1.2659-0.60417-2.6911-0.90625-4.2734-0.90625-1.4097 0-2.6606 0.25753-3.7539 0.77539-1.0933 0.48909-2.0279 1.3527-2.8047 2.5898h-0.38867c0.05754-0.63294 0.12853-1.5534 0.21484-2.7617s0.13086-2.6903 0.13086-4.4453v-4.6602zm-63.869 1.5527c-3.1935 0-5.9122 0.6913-8.1563 2.0723-2.2153 1.3522-3.898 3.2214-5.0488 5.6094-1.1508 2.3879-1.7266 5.137-1.7266 8.2441 0 3.1072 0.50281 5.8543 1.5098 8.2422 1.007 2.3592 2.5761 4.2 4.7051 5.5234s4.8619 1.9844 8.1992 1.9844c1.6111-1e-6 3.1215-0.14199 4.5312-0.42969 1.4385-0.25893 2.8333-0.69075 4.1855-1.2949v-7.0352c-1.2947 0.54663-2.5882 1.0068-3.8828 1.3809-1.2659 0.37401-2.5755 0.56055-3.9277 0.56055-2.2728 0-3.9698-0.74809-5.0918-2.2441-1.122-1.5248-1.6836-3.7387-1.6836-6.6445 0-2.877 0.56156-5.1213 1.6836-6.7324 1.122-1.6111 2.6608-2.418 4.6172-2.418 1.2947 0 2.5172 0.18849 3.668 0.5625 1.1508 0.34524 2.2881 0.79126 3.4102 1.3379l2.5449-6.5605c-1.5824-0.74802-3.1921-1.2934-4.832-1.6387-1.6399-0.34524-3.209-0.51953-4.7051-0.51953zm25.375 6.9492c-2.1578 0-4.1142 0.18653-5.8691 0.56055-1.7262 0.34524-3.2792 0.8784-4.6602 1.5977l2.373 5.4375c1.1796-0.51786 2.3453-0.93548 3.4961-1.252 1.1508-0.34524 2.201-0.51758 3.1504-0.51758 0.89188 0 1.5974 0.22913 2.1152 0.68945 0.51786 0.43155 0.77539 1.1796 0.77539 2.2441v0.3457l-3.9688 0.12891c-3.3661 0.14385-5.9428 0.83515-7.7266 2.0723-1.755 1.2371-2.6309 3.1348-2.6309 5.6953 0 2.6181 0.68934 4.5603 2.0703 5.8262 1.381 1.2659 3.1082 1.8984 5.1797 1.8984 1.3234-1e-6 2.4446-0.12779 3.3652-0.38672 0.92065-0.23016 1.7255-0.60518 2.416-1.123 0.71926-0.54663 1.4106-1.236 2.0723-2.0703h0.17188l1.5977 3.1504h5.6973v-15.666c0-2.7619-0.84943-4.8907-2.5469-6.3867-1.6974-1.496-4.0573-2.2441-7.0781-2.2441zm26.756 0c-2.4167 0-4.5738 0.44602-6.4727 1.3379-1.8701 0.86311-3.352 2.2153-4.4453 4.0566-1.0933 1.8125-1.6387 4.1704-1.6387 7.0762 0 4.258 1.0786 7.3659 3.2363 9.3223 2.1578 1.9564 5.0488 2.9336 8.6738 2.9336 1.6399-1e-6 3.0793-0.18654 4.3164-0.56055 1.2371-0.40278 2.3441-0.91979 3.3223-1.5527v-6.5605c-1.0645 0.66172-2.2018 1.1807-3.4102 1.5547-1.1796 0.37401-2.3575 0.56055-3.5371 0.56055-1.2371 0-2.2589-0.43182-3.0645-1.2949-0.7768-0.89188-1.166-2.3739-1.166-4.4453 0-2.0139 0.38922-3.5101 1.166-4.4883 0.7768-0.97819 1.7824-1.4668 3.0195-1.4668 0.92065 0 1.7985 0.12974 2.6328 0.38867 0.8631 0.25893 1.7835 0.6036 2.7617 1.0352l2.418-6.084c-1.122-0.5754-2.3445-1.0214-3.668-1.3379-1.2947-0.31647-2.6773-0.47461-4.1445-0.47461zm37.762 0.43164 9.4082 23.52-0.0859 0.21484c-0.40278 1.0357-0.93594 1.942-1.5977 2.7188-0.63294 0.80556-1.6244 1.209-2.9766 1.209-0.48909 0-0.96545-0.0284-1.4258-0.08594-0.43155-0.05754-0.80463-0.11629-1.1211-0.17383v6.4746c0.40278 0.08631 0.87719 0.1573 1.4238 0.21484 0.54664 0.08631 1.1934 0.12891 1.9414 0.12891 2.1002 0 3.8559-0.33047 5.2656-0.99219 1.4097-0.66171 2.5896-1.6531 3.5391-2.9766 0.97818-1.3234 1.8257-2.9494 2.5449-4.877l9.4512-25.375h-8.4141l-4.1426 13.723c-0.0863 0.2877-0.18765 0.64657-0.30273 1.0781-0.0863 0.40278-0.15927 0.89335-0.2168 1.4688h-0.17188c-0.0288-0.46032-0.0856-0.93474-0.17187-1.4238-0.0575-0.48909-0.13049-0.87831-0.2168-1.166l-4.0567-13.68zm-63.094 13.205v1.8555c0 1.007-0.35887 1.826-1.0781 2.459-0.69048 0.63294-1.5399 0.95117-2.5469 0.95117-0.71926 0-1.2931-0.18849-1.7246-0.5625-0.43155-0.40278-0.64844-1.0069-0.64844-1.8125 0-0.86311 0.30208-1.5241 0.90625-1.9844 0.63294-0.48909 1.6973-0.76277 3.1934-0.82031z" fill="#fff"/>
</svg>
