<svg width="148" height="56" version="1.1" viewBox="0 0 39.158 14.817" xmlns="http://www.w3.org/2000/svg">
  <path fill="context-fill #20123a" d="m6.4609 2.168c-2.3301 0-3.7773 1.6626-3.7773 4.332 0 2.6581 1.4363 4.3086 3.7324 4.3086 2.0586 0 3.4158-1.1872 3.5176-3.0762h-1.6523c-0.11311 1.0519-0.76839 1.6523-1.8203 1.6523-1.3121 0-2.082-1.0648-2.082-2.8633 0-1.8211 0.80397-2.9062 2.1387-2.9062 0.98406 0 1.5375 0.47574 1.7637 1.4824h1.6172c-0.056555-0.71259-0.20209-1.1652-0.55273-1.6289-0.63342-0.83701-1.6519-1.3008-2.8848-1.3008zm17.193 0.13477v8.2461h1.582v-3.6641c0-0.70128 0.51006-1.1992 1.2227-1.1992 0.35064 0 0.61004 0.1242 0.79102 0.37305 0.14704 0.2036 0.18164 0.37324 0.18164 0.75781v3.7324h1.584v-4.0937c0-0.75784-0.20454-1.3017-0.62305-1.6523-0.35064-0.29409-0.86014-0.46289-1.3691-0.46289-0.78046 0-1.346 0.30376-1.7871 0.98242v-3.0195zm-10.236 2.0371c-1.6514 0-2.5115 0.70136-2.6133 2.1152h1.5273c0.07918-0.63342 0.33868-0.83789 1.1191-0.83789 0.61079 0 0.91602 0.20413 0.91602 0.61133 0 0.2036-0.10182 0.37281-0.27148 0.47461-0.21491 0.11311-0.21564 0.11386-0.99609 0.23828l-0.63281 0.11328c-1.2103 0.2036-1.7988 0.82471-1.7988 1.9219 0 1.0972 0.73568 1.832 1.8555 1.832 0.67866 0 1.2899-0.28292 1.8555-0.87109 0 0.31671 0.03264 0.43035 0.17969 0.61133h1.7207v-0.19141c-0.27146-0.26015-0.36328-0.44265-0.36328-0.74805v-3.3926c0-1.2442-0.84664-1.877-2.498-1.877zm6.4922 0c-1.8324 0-2.8848 1.1981-2.8848 3.2793 0 2.0134 1.0516 3.1895 2.8613 3.1895 1.4817 0 2.5112-0.91588 2.6582-2.375h-1.5156c-0.19229 0.79177-0.50916 1.0977-1.1426 1.0977-0.80308 0-1.2773-0.71314-1.2773-1.9121 0-0.58817 0.1124-1.1205 0.30469-1.4824 0.18098-0.33933 0.53194-0.51953 0.98438-0.51953 0.64473 0 0.94988 0.30629 1.1309 1.1094h1.5156c-0.11311-1.4931-1.0965-2.3867-2.6348-2.3867zm9.7266 0.10156 2.2734 6.3555c0 0.63342-0.3962 1.0645-0.98438 1.0645-0.12442 0-0.22568-0.02311-0.41797-0.06836v1.1875c0.23753 0.03393 0.37412 0.04492 0.56641 0.04492 0.4072 0 0.8598-0.0783 1.1426-0.19141 0.44113-0.18098 0.63242-0.4308 0.89258-1.166l2.5117-7.2266h-1.6289l-1.2676 4.4453-1.3457-4.4453zm-15.27 3.2227v0.42969c0 0.91619-0.45278 1.4375-1.2559 1.4375-0.53162 0-0.85938-0.28389-0.85938-0.73633 0-0.47506 0.24826-0.70021 0.9043-0.83594l0.54297-0.10156c0.41851-0.079177 0.48699-0.10287 0.66797-0.19336z"/>
</svg>
